<?xml version="1.0" standalone="no"?>
<!DOCTYPE svg PUBLIC "-//W3C//DTD SVG 1.1//EN" "http://www.w3.org/Graphics/SVG/1.1/DTD/svg11.dtd">
<svg xmlns="http://www.w3.org/2000/svg">
<defs >
<font id="IBMPlexSansKR" horiz-adv-x="892" ><font-face
    font-family="IBM Plex Sans KR Thin"
    units-per-em="1000"
    panose-1="2 11 2 3 5 2 3 0 2 3"
    ascent="1085"
    descent="-415"
    alphabetic="0" />
<glyph unicode=" " horiz-adv-x="236" />
<glyph unicode="!" horiz-adv-x="252" d="M115 415V698H137V415L132 176H120L115 415ZM126 -5Q99 -5 99 20V28Q99 53 126 53Q153 53 153 28V20Q153 -5 126 -5Z" />
<glyph unicode="&quot;" horiz-adv-x="373" d="M100 740H120V490H100V740ZM253 740H273V490H253V740Z" />
<glyph unicode="#" horiz-adv-x="712" d="M241 220L203 0H182L220 220H70V239H224L261 459H109V478H264L302 698H323L285 478H471L509 698H530L492 478H642V459H488L451 239H603V220H448L410 0H389L427 220H241ZM468 459H282L244 239H430L468 459Z" />
<glyph unicode="$" horiz-adv-x="547" d="M268 0Q226 1 193 10T132 34T82 69T42 114L60 127Q78 104 98 85T144 51T199 29T268 20V351L237 357Q184 367 150 384T95 423T66 473T58 530Q58 615 115 656T268 698V780H288V698Q358 695 404 669T477 603L459 590Q431
631 390 653T288 678V368L312 364Q366 355 400 337T454 296T481 244T489 185Q489 95 436 49T288 0V-82H268V0ZM80 530Q80 491 93 465T128 421T180 393T243 376L268 371V678Q179 678 130 642T80 530ZM467 184Q467 227 454 255T418 302T367 330T306 345L288 348V20Q375
23 421 64T467 184Z" />
<glyph unicode="%" horiz-adv-x="882" d="M217 326Q188 326 163 336T118 370T87 430T75 518Q75 569 86 605T117 665T162 699T217 710Q246 710 271 700T316 666T347 606T359 518Q359 467 348 431T317 371T272 337T217 326ZM671 698H694L210 0H187L671 698ZM217
343Q240 343 262 352T300 380T327 429T337 502V534Q337 577 327 607T301 656T262 684T217 693Q194 693 172 684T134 656T107 607T97 534V502Q97 459 107 429T133 380T172 352T217 343ZM665 -12Q636 -12 611 -2T566 32T535 92T523 180Q523 231 534 267T565 327T610
361T665 372Q694 372 719 362T764 328T795 268T807 180Q807 129 796 93T765 33T720 -1T665 -12ZM665 5Q688 5 710 14T748 42T775 91T785 164V196Q785 239 775 269T749 318T710 346T665 355Q642 355 620 346T582 318T555 269T545 196V164Q545 121 555 91T581 42T620
14T665 5Z" />
<glyph unicode="&amp;" horiz-adv-x="677" d="M497 116Q465 58 408 23T271 -12Q225 -12 188 1T125 37T84 93T70 166Q70 208 83 239T120 294T173 336T239 371Q215 397 197 419T166 463T147 507T140 554Q140 624 185 667T309 710Q346 710 375 699T426 669T458 625T469
570Q469 534 455 506T416 453T354 409T273 367L493 149Q510 190 517 242T525 351H634V331H544Q542 275 534 226T507 135L640 0H612L497 116ZM309 691Q274 691 247 681T202 654T173 614T163 564V546Q163 503 191 463T259 380Q300 399 334 418T393 460T432 506T446
560V574Q446 602 435 623T405 660T361 683T309 691ZM93 156Q93 122 106 95T143 49T199 19T271 8Q347 8 399 39T483 129L253 358Q220 342 191 325T141 287T106 239T93 176V156Z" />
<glyph unicode="&apos;" horiz-adv-x="220" d="M100 740H120V490H100V740Z" />
<glyph unicode="(" horiz-adv-x="332" d="M105 311Q105 387 121 455T162 580T221 682T289 760H314Q277 727 243 682T183 581T142 461T126 328V294Q126 225 141 161T183 42T243 -59T314 -138H289Q254 -106 221 -61T163 42T121 166T105 311Z" />
<glyph unicode=")" horiz-adv-x="332" d="M227 311Q227 234 211 167T170 42T111 -60T43 -138H18Q55 -105 89 -60T149 41T190 161T206 294V328Q206 397 191 461T149 580T89 681T18 760H43Q77 728 110 683T169 580T211 455T227 311Z" />
<glyph unicode="*" horiz-adv-x="362" d="M73 447L168 575L17 621L23 640L173 590L171 747H191L189 590L339 640L345 621L194 575L289 447L274 436L181 565L88 436L73 447Z" />
<glyph unicode="+" horiz-adv-x="600" d="M290 296H62V315H290V549H311V315H539V296H311V62H290V296Z" />
<glyph unicode="," horiz-adv-x="240" d="M121 53Q135 53 141 46T147 27V15Q147 -6 141 -28T125 -71T100 -112T70 -147H51Q89 -109 105 -71T125 -5Q107 -5 100 2T93 18V27Q93 38 99 45T121 53Z" />
<glyph unicode="-" horiz-adv-x="395" d="M83 315H312V295H83V315Z" />
<glyph unicode="." horiz-adv-x="240" d="M120 -5Q93 -5 93 20V28Q93 53 120 53Q147 53 147 28V20Q147 -5 120 -5Z" />
<glyph unicode="/" horiz-adv-x="313" d="M251 740H271L33 -151H13L251 740Z" />
<glyph unicode="0" horiz-adv-x="600" d="M300 -12Q245 -12 203 8T131 72T86 184T71 349Q71 445 86 513T130 625T202 689T300 710Q355 710 397 690T469 626T513 514T529 349Q529 253 514 185T469 73T398 9T300 -12ZM300 8Q400 8 452 85T505 317V381Q505 536 453
613T300 690Q200 690 148 613T95 381V317Q95 162 147 85T300 8Z" />
<glyph unicode="1" horiz-adv-x="600" d="M93 20H312V682H309L93 501L80 517L296 698H334V20H545V0H93V20Z" />
<glyph unicode="2" horiz-adv-x="600" d="M87 0V22L356 294Q407 345 434 395T462 502V532Q462 566 452 595T420 645T368 678T294 690Q216 690 172 653T107 551L87 555Q106 623 157 666T294 710Q388 710 437 659T486 516Q486 449 457 393T370 279L112 20H521V0H87Z" />
<glyph unicode="3" horiz-adv-x="600" d="M280 376Q318 376 349 386T403 416T438 463T451 522V546Q451 578 439 604T406 650T354 679T287 690Q217 690 177 663T113 591L95 599Q116 648 164 679T287 710Q373 710 424 663T475 536Q475 499 465 471T436 421T392 387T335
368V365Q406 356 448 311T490 187Q490 94 435 41T283 -12Q210 -12 158 14T70 95L88 106Q120 55 167 32T283 8Q323 8 357 19T415 52T452 104T466 170V198Q466 270 417 313T282 356H186V376H280V376Z" />
<glyph unicode="4" horiz-adv-x="600" d="M412 160H47V181L407 698H432V179H550V160H432V0H412V160ZM412 179V670H410L69 179H412Z" />
<glyph unicode="5" horiz-adv-x="600" d="M158 678L134 344L137 343Q167 382 207 397T304 413Q400 413 452 358T505 203Q505 153 491 113T449 46T384 3T297 -12Q224 -12 172 14T84 95L102 106Q134 55 181 32T297 8Q341 8 375 21T432 59T468 116T481 188V216Q481
295 436 344T304 393Q272 393 248 389T204 376T168 354T137 323L114 326L140 698H481V678H158Z" />
<glyph unicode="6" horiz-adv-x="600" d="M300 -12Q243 -12 203 6T137 57T99 132T87 226Q87 311 108 382T165 511T252 616T360 698H392Q270 622 202 529T113 311L116 310Q142 364 189 390T299 417Q347 417 386 403T453 361T496 294T511 205Q511 156 496 116T454
48T387 4T300 -12ZM299 8Q343 8 378 21T437 59T474 116T487 187V218Q487 256 474 288T437 345T378 383T299 397Q254 397 219 383T160 345T124 289T111 218V190Q111 151 124 118T161 60T220 22T299 8Z" />
<glyph unicode="7" horiz-adv-x="600" d="M489 678H99V512H77V698H512V678L211 0H187L489 678Z" />
<glyph unicode="8" horiz-adv-x="600" d="M300 -12Q247 -12 205 1T134 40T88 101T72 180Q72 255 113 303T226 364V368Q166 380 131 423T96 535Q96 616 151 663T300 710Q394 710 449 663T504 535Q504 467 469 424T374 368V364Q446 352 487 304T528 180Q528 136
512 101T467 41T395 2T300 -12ZM300 376Q382 376 431 415T480 521V545Q480 611 431 650T300 690Q218 690 169 651T120 545V521Q120 455 169 416T300 376ZM300 8Q346 8 384 20T448 53T489 103T504 169V195Q504 231 490 260T449 311T384 344T300 356Q253 356 216
344T152 311T111 261T96 195V169Q96 133 110 104T151 53T215 20T300 8Z" />
<glyph unicode="9" horiz-adv-x="600" d="M516 472Q516 387 495 316T437 187T351 82T243 0H211Q333 76 401 169T490 387L487 388Q461 334 414 308T304 281Q256 281 217 295T150 337T107 404T92 493Q92 542 107 582T149 650T216 694T303 710Q360 710 400 692T466
641T504 566T516 472ZM304 301Q349 301 384 315T443 353T479 409T492 480V508Q492 547 479 580T442 638T382 676T304 690Q260 690 225 677T166 639T129 582T116 511V480Q116 442 129 410T166 353T225 315T304 301Z" />
<glyph unicode=":" horiz-adv-x="260" d="M130 453Q103 453 103 478V486Q103 511 130 511Q157 511 157 486V478Q157 453 130 453ZM130 -5Q103 -5 103 20V28Q103 53 130 53Q157 53 157 28V20Q157 -5 130 -5Z" />
<glyph unicode=";" horiz-adv-x="260" d="M130 453Q103 453 103 478V486Q103 511 130 511Q157 511 157 486V478Q157 453 130 453ZM131 53Q145 53 151 46T157 27V15Q157 -6 151 -28T135 -71T110 -112T80 -147H61Q99 -109 115 -71T135 -5Q117 -5 110 2T103 18V27Q103
38 109 45T131 53Z" />
<glyph unicode="&lt;" horiz-adv-x="600" d="M85 314L515 572V549L108 306V304L515 61V38L85 296V314Z" />
<glyph unicode="=" horiz-adv-x="600" d="M62 404H538V385H62V404ZM62 226H538V207H62V226Z" />
<glyph unicode="&gt;" horiz-adv-x="600" d="M492 304V306L85 549V572L515 314V296L85 38V61L492 304Z" />
<glyph unicode="?" horiz-adv-x="456" d="M198 349Q294 351 346 397T398 516V542Q398 608 356 649T236 691Q161 691 119 656T57 554L37 559Q57 631 106 670T236 710Q323 710 372 661T421 531Q421 443 369 391T220 330V176H198V349ZM209 -5Q182 -5 182 20V28Q182
53 209 53Q236 53 236 28V20Q236 -5 209 -5Z" />
<glyph unicode="@" horiz-adv-x="880" d="M440 -121Q363 -121 296 -93T178 -12T99 120T70 300Q70 395 98 471T177 600T295 681T442 710Q517 710 584 685T701 612T781 493T810 330Q810 276 802 228T777 145T733 90T668 69Q629 69 604 91T575 148H572Q565 134 553
120T524 94T485 76T436 69Q355 69 310 123T264 287Q264 398 309 453T436 508Q491 508 524 485T571 433H574V496H594V163Q594 130 613 109T668 87Q722 87 755 144T788 305V352Q788 429 762 491T689 598T579 667T442 692Q367 692 303 665T192 589T119 473T92 326V274Q92
190 118 121T190 2T301 -75T440 -103H676V-121H440ZM436 87Q463 87 488 96T532 121T562 161T574 212V362Q574 391 563 414T532 455T488 481T436 490Q363 490 325 441T286 306V268Q286 184 324 136T436 87Z" />
<glyph unicode="A" horiz-adv-x="600" d="M460 234H140L55 0H32L285 698H315L568 0H545L460 234ZM298 675L147 253H453L301 675H298Z" />
<glyph unicode="B" horiz-adv-x="615" d="M360 698Q435 698 476 655T518 528Q518 462 493 424T420 371V369Q486 357 518 310T550 189Q550 102 506 51T376 0H108V698H360ZM360 378Q394 378 419 388T461 417T486 458T494 507V549Q494 574 486 597T462 639T420 667T360
678H130V378H360ZM376 20Q415 20 443 32T489 65T517 112T526 168V210Q526 238 517 265T490 312T443 345T376 358H130V20H376Z" />
<glyph unicode="C" horiz-adv-x="610" d="M329 -12Q204 -12 137 78T70 349Q70 530 137 620T329 710Q406 710 461 671T545 567L526 558Q499 620 449 655T329 690Q219 690 157 611T94 370V328Q94 166 156 87T329 8Q404 8 454 45T531 148L550 140Q523 71 467 30T329 -12Z" />
<glyph unicode="D" horiz-adv-x="658" d="M312 698Q452 698 520 611T588 349Q588 175 520 88T312 0H108V698H312ZM313 20Q378 20 425 41T503 102T549 196T564 319V379Q564 447 549 502T504 596T426 656T313 678H130V20H313Z" />
<glyph unicode="E" horiz-adv-x="561" d="M108 698H489V678H130V364H477V344H130V20H489V0H108V698Z" />
<glyph unicode="F" horiz-adv-x="535" d="M108 698H481V678H130V364H467V344H130V0H108V698Z" />
<glyph unicode="G" horiz-adv-x="666" d="M562 114Q533 54 479 21T340 -12Q209 -12 140 78T70 349Q70 530 139 620T340 710Q421 710 480 671T569 567L550 558Q523 621 468 655T340 690Q225 690 160 610T94 370V328Q94 169 159 89T340 8Q385 8 425 20T497 57T546
119T564 206V312H388V332H586V0H565V114H562Z" />
<glyph unicode="H" horiz-adv-x="692" d="M130 344V0H108V698H130V364H562V698H584V0H562V344H130Z" />
<glyph unicode="I" horiz-adv-x="372" d="M68 19H175V679H68V698H304V679H197V19H304V0H68V19Z" />
<glyph unicode="J" horiz-adv-x="464" d="M364 183Q364 86 319 37T192 -12Q129 -12 83 22T22 113L41 119Q55 71 94 40T192 8Q267 8 304 53T342 183V678H96V698H364V183Z" />
<glyph unicode="K" horiz-adv-x="572" d="M130 239V0H108V698H130V271H132L521 698H549L280 403L552 0H526L265 387L130 239Z" />
<glyph unicode="L" horiz-adv-x="475" d="M108 698H130V20H455V0H108V698Z" />
<glyph unicode="M" horiz-adv-x="796" d="M664 673L398 236L132 673H129V0H108V698H141L397 278H400L655 698H688V0H667V673H664Z" />
<glyph unicode="N" horiz-adv-x="692" d="M129 671V0H108V698H140L560 27H563V698H584V0H552L132 671H129Z" />
<glyph unicode="O" horiz-adv-x="680" d="M340 -12Q209 -12 140 78T70 349Q70 530 139 620T340 710Q471 710 540 620T610 349Q610 168 541 78T340 -12ZM340 8Q455 8 520 88T586 328V370Q586 529 521 609T340 690Q225 690 160 610T94 370V328Q94 169 159 89T340 8Z" />
<glyph unicode="P" horiz-adv-x="594" d="M108 698H376Q462 698 506 647T550 510Q550 424 506 373T376 322H130V0H108V698ZM376 342Q415 342 443 354T489 387T517 433T526 489V531Q526 559 517 586T490 633T443 665T376 678H130V342H376Z" />
<glyph unicode="Q" horiz-adv-x="680" d="M359 -146Q330 -146 330 -117V-12Q204 -8 137 82T70 349Q70 530 139 620T340 710Q471 710 540 620T610 349Q610 172 544 83T352 -12V-126H456V-146H359ZM340 8Q455 8 520 88T586 328V370Q586 529 521 609T340 690Q225
690 160 610T94 370V328Q94 169 159 89T340 8Z" />
<glyph unicode="R" horiz-adv-x="630" d="M108 0V698H376Q462 698 506 647T550 510Q550 424 506 373T374 322L566 0H541L349 322H130V0H108ZM376 342Q415 342 443 354T489 387T517 433T526 489V531Q526 559 517 586T490 633T443 665T376 678H130V342H376Z" />
<glyph unicode="S" horiz-adv-x="547" d="M276 -12Q232 -12 198 -4T135 20T84 56T42 102L60 115Q78 91 99 72T146 38T204 16T276 8Q367 8 417 50T467 176Q467 220 454 249T418 296T367 325T306 341L236 354Q183 364 149 381T95 423T66 475T58 534Q58 623 116 666T271
710Q349 710 398 684T477 615L459 602Q429 646 383 668T269 690Q180 690 130 652T80 534Q80 493 93 466T128 420T180 392T242 375L312 362Q366 352 400 334T454 291T481 238T489 178Q489 83 432 36T276 -12Z" />
<glyph unicode="T" horiz-adv-x="560" d="M291 0H269V678H17V698H543V678H291V0Z" />
<glyph unicode="U" horiz-adv-x="652" d="M122 268Q122 197 132 148T165 67T228 22T326 8Q384 8 423 22T486 67T520 147T530 268V698H552V270Q552 192 541 139T502 52T432 3T326 -12Q263 -12 220 3T150 51T112 138T100 270V698H122V268Z" />
<glyph unicode="V" horiz-adv-x="570" d="M30 698H54L284 25H287L517 698H540L300 0H270L30 698Z" />
<glyph unicode="W" horiz-adv-x="872" d="M30 698H54L230 31H233L420 698H452L639 31H642L819 698H842L656 0H626L437 674H434L246 0H216L30 698Z" />
<glyph unicode="X" horiz-adv-x="558" d="M504 0L281 335H279L54 0H28L266 354L37 698H63L278 376H280L495 698H521L293 357L530 0H504Z" />
<glyph unicode="Y" horiz-adv-x="546" d="M262 294L21 698H46L272 320H275L501 698H525L284 294V0H262V294Z" />
<glyph unicode="Z" horiz-adv-x="555" d="M39 0V22L482 678H62V698H506V676L63 20H527V0H39Z" />
<glyph unicode="[" horiz-adv-x="301" d="M108 760H232V742H128V-120H232V-138H108V760Z" />
<glyph unicode="\" horiz-adv-x="313" d="M41 740H61L294 -151H274L41 740Z" />
<glyph unicode="]" horiz-adv-x="301" d="M193 -138H69V-120H173V742H69V760H193V-138Z" />
<glyph unicode="^" horiz-adv-x="600" d="M301 676H299L86 322L68 332L289 698H311L532 332L514 322L301 676Z" />
<glyph unicode="_" horiz-adv-x="569" d="M30 -123H539V-141H30V-123Z" />
<glyph unicode="`" horiz-adv-x="600" d="M221 751L332 597L317 587L202 739L221 751Z" />
<glyph unicode="a" horiz-adv-x="519" d="M422 0Q393 0 393 29V77H390Q371 41 333 15T224 -12Q146 -12 104 24T61 130Q61 161 70 188T102 234T160 264T251 275H393V349Q393 427 357 463T249 499Q192 499 155 477T96 404L78 412Q99 461 138 489T249 518Q332 518
373 476T414 352V19H499V0H422ZM224 7Q258 7 288 16T342 42T379 86T393 148V257H252Q163 257 124 226T84 145V115Q84 62 123 35T224 7Z" />
<glyph unicode="b" horiz-adv-x="565" d="M126 740V428H129Q137 444 151 460T185 489T233 510T293 518Q393 518 449 452T505 253Q505 120 449 54T293 -12Q260 -12 233 -4T186 16T151 45T129 78H126V0H105V740H126ZM293 7Q384 7 433 66T482 229V277Q482 380 433
439T293 499Q260 499 230 489T177 461T140 418T126 363V143Q126 113 139 88T176 45T230 17T293 7Z" />
<glyph unicode="c" horiz-adv-x="487" d="M270 -12Q170 -12 115 54T60 253Q60 385 115 451T270 518Q330 518 371 491T435 418L417 409Q393 453 359 476T270 499Q179 499 131 440T83 277V229Q83 126 131 67T270 7Q329 7 366 30T428 95L444 84Q419 41 378 15T270 -12Z" />
<glyph unicode="d" horiz-adv-x="565" d="M436 78Q428 61 414 45T380 17T332 -4T272 -12Q172 -12 116 54T60 253Q60 386 116 452T272 518Q305 518 332 510T379 490T414 461T436 428H439V740H460V0H439V78H436ZM272 7Q305 7 335 17T388 45T425 88T439 143V363Q439
393 426 418T389 461T335 489T272 499Q181 499 132 440T83 277V229Q83 126 132 67T272 7Z" />
<glyph unicode="e" horiz-adv-x="533" d="M272 -12Q172 -12 116 54T60 253Q60 384 115 451T268 518Q314 518 351 501T416 450T458 371T473 266V256H83V229Q83 126 132 67T272 7Q400 7 447 131L465 124Q442 61 394 25T272 -12ZM268 499Q179 499 131 440T83 277V275H450V279Q450
329 437 369T400 439T343 483T268 499Z" />
<glyph unicode="f" horiz-adv-x="285" d="M30 487V506H123V711Q123 740 152 740H260V721H144V506H260V487H144V0H123V487H30Z" />
<glyph unicode="g" horiz-adv-x="527" d="M501 -65Q501 -141 439 -176T262 -212Q150 -212 100 -177T50 -82Q50 -37 76 -7T149 38V41Q121 49 109 66T96 108Q96 143 122 163T181 194V197Q138 216 114 254T90 349Q90 426 136 472T263 518Q297 518 324 510T374 485V534Q374
561 401 561H504V542H393V468Q436 423 436 349Q436 311 424 280T388 226T334 192T263 180Q248 180 235 182T207 187Q116 163 116 109Q116 98 119 88T133 71T160 58T203 53H338Q425 53 463 21T501 -65ZM263 199Q335 199 373 236T412 330V368Q412 424 374 461T263
499Q191 499 153 462T114 368V330Q114 302 124 278T153 237T200 209T263 199ZM479 -65Q479 -19 448 7T335 33H180Q132 21 102 -7T72 -83Q72 -133 116 -163T238 -193H287Q329 -193 364 -186T425 -163T465 -123T479 -65Z" />
<glyph unicode="h" horiz-adv-x="556" d="M126 740V430H129Q142 464 180 491T287 518Q372 518 416 469T461 325V0H440V321Q440 414 400 456T285 499Q254 499 225 491T174 465T139 422T126 362V0H105V740H126Z" />
<glyph unicode="i" horiz-adv-x="231" d="M115 673Q102 673 97 679T92 694V701Q92 709 97 715T115 722Q128 722 133 716T138 701V694Q138 686 133 680T115 673ZM126 506V0H105V506H126Z" />
<glyph unicode="j" horiz-adv-x="231" d="M115 673Q102 673 97 679T92 694V701Q92 709 97 715T115 722Q128 722 133 716T138 701V694Q138 686 133 680T115 673ZM126 506V-171Q126 -200 97 -200H20V-181H105V506H126Z" />
<glyph unicode="k" horiz-adv-x="490" d="M126 740V220H129L209 299L416 506H444L229 292L471 0H445L214 277L126 190V0H105V740H126Z" />
<glyph unicode="l" horiz-adv-x="251" d="M134 0Q105 0 105 29V740H126V19H211V0H134V0Z" />
<glyph unicode="m" horiz-adv-x="879" d="M105 506H126V430H129Q136 447 148 463T179 491T223 510T282 518Q344 518 385 490T441 406H445Q459 455 499 486T611 518Q696 518 740 469T784 325V0H763V322Q763 414 724 456T609 499Q578 499 550 491T501 465T468 421T455
360V0H434V322Q434 414 394 456T280 499Q250 499 222 491T173 465T139 422T126 362V0H105V506Z" />
<glyph unicode="n" horiz-adv-x="556" d="M105 506H126V430H129Q142 464 180 491T287 518Q372 518 416 469T461 325V0H440V321Q440 414 400 456T285 499Q254 499 225 491T174 465T139 422T126 362V0H105V506Z" />
<glyph unicode="o" horiz-adv-x="540" d="M270 -12Q170 -12 115 54T60 253Q60 385 115 451T270 518Q370 518 425 452T480 253Q480 121 425 55T270 -12ZM270 7Q361 7 409 66T457 229V277Q457 380 409 439T270 499Q179 499 131 440T83 277V229Q83 126 131 67T270 7Z" />
<glyph unicode="p" horiz-adv-x="565" d="M126 506V428H129Q137 444 151 460T185 489T233 510T293 518Q393 518 449 452T505 253Q505 120 449 54T293 -12Q260 -12 233 -4T186 16T151 45T129 78H126V-200H105V506H126ZM293 7Q384 7 433 66T482 229V277Q482 380
433 439T293 499Q260 499 230 489T177 461T140 418T126 363V143Q126 113 139 88T176 45T230 17T293 7Z" />
<glyph unicode="q" horiz-adv-x="565" d="M436 78Q428 61 414 45T380 17T332 -4T272 -12Q172 -12 116 54T60 253Q60 386 116 452T272 518Q305 518 332 510T379 490T414 461T436 428H439V506H460V-200H439V78H436ZM272 7Q305 7 335 17T388 45T425 88T439 143V363Q439
393 426 418T389 461T335 489T272 499Q181 499 132 440T83 277V229Q83 126 132 67T272 7Z" />
<glyph unicode="r" horiz-adv-x="341" d="M105 506H126V419H129Q138 437 150 452T181 480T226 499T287 506H328V487H284Q253 487 225 479T174 453T139 410T126 349V0H105V506Z" />
<glyph unicode="s" horiz-adv-x="462" d="M236 -12Q175 -12 130 9T49 81L67 93Q101 46 140 27T236 7Q308 7 345 37T382 124Q382 181 350 208T254 245L210 252Q143 262 105 292T66 389Q66 421 78 445T112 485T163 510T226 518Q259 518 284 512T330 496T365 472T393
445L377 431Q365 444 352 456T321 478T280 493T227 499Q164 499 126 472T87 390Q87 333 118 308T214 272L258 265Q291 260 318 250T363 224T392 183T403 125Q403 59 359 24T236 -12Z" />
<glyph unicode="t" horiz-adv-x="310" d="M154 0Q125 0 125 29V487H30V506H102Q116 506 120 511T125 531V650H146V506H267V487H146V19H259V0H154V0Z" />
<glyph unicode="u" horiz-adv-x="556" d="M427 76Q413 42 375 15T269 -12Q184 -12 140 37T95 181V506H116V185Q116 92 156 50T271 7Q302 7 331 15T382 41T417 83T430 144V506H451V0H430V76H427Z" />
<glyph unicode="v" horiz-adv-x="452" d="M47 506L225 24H228L406 506H427L239 0H213L25 506H47Z" />
<glyph unicode="w" horiz-adv-x="725" d="M57 506L201 27H204L352 506H374L522 27H525L669 506H690L536 0H510L364 472H361L215 0H189L35 506H57Z" />
<glyph unicode="x" horiz-adv-x="470" d="M222 255L39 506H63L234 271H236L407 506H431L248 255L436 0H412L236 239H234L58 0H34L222 255Z" />
<glyph unicode="y" horiz-adv-x="452" d="M427 506L172 -181Q165 -200 141 -200H57V-181H150L216 -7L25 506H47L225 24H228L406 506H427Z" />
<glyph unicode="z" horiz-adv-x="417" d="M27 21L364 487H37V506H386V485L49 19H396V0H27V21Z" />
<glyph unicode="{" horiz-adv-x="315" d="M147 -138Q122 -138 122 -112V201Q122 246 96 266T25 287V335Q70 335 96 355T122 421V734Q122 760 147 760H247V742H142V421Q142 374 115 347T43 319V303Q88 303 115 276T142 201V-120H247V-138H147V-138Z" />
<glyph unicode="|" horiz-adv-x="236" d="M108 760H128V-138H108V760Z" />
<glyph unicode="}" horiz-adv-x="315" d="M168 760Q193 760 193 734V421Q193 376 219 356T290 335V287Q245 287 219 267T193 201V-112Q193 -138 168 -138H68V-120H173V201Q173 248 200 275T272 303V319Q227 319 200 346T173 421V742H68V760H168V760Z" />
<glyph unicode="~" horiz-adv-x="600" d="M424 256Q410 256 397 258T368 265T335 277T294 295Q272 305 256 312T227 323T201 330T175 332Q146 332 124 323T78 290L65 304Q91 329 117 340T176 352Q190 352 203 350T232 343T265 331T306 313Q328 303 344 296T373
285T399 278T425 276Q454 276 476 285T522 318L535 304Q509 279 483 268T424 256Z" />
<glyph unicode="&#xa2;" horiz-adv-x="497" d="M253 -11Q161 -6 111 60T60 253Q60 379 110 445T253 517V620H273V518Q332 517 372 490T435 418L417 409Q393 453 359 476T273 499V7Q330 8 367 31T428 95L444 84Q419 41 378 15T273 -12V-114H253V-11ZM83 229Q83
132 127 73T253 8V498Q171 493 127 434T83 277V229Z" />
<glyph unicode="&#xa3;" horiz-adv-x="579" d="M83 25Q125 57 152 106T179 220Q179 245 175 267T165 311H70V331H158Q151 352 143 373T128 416T117 461T112 510Q112 557 127 594T171 657T236 696T319 710Q383 710 433 681T519 592L500 582Q467 639 422 664T320
690Q279 690 245 678T186 643T148 586T134 510Q134 459 150 417T181 331H399V311H187Q193 290 197 268T201 221Q201 161 177 109T107 22V20H513V0H83V25Z" />
<glyph unicode="&#xa4;" horiz-adv-x="586" d="M293 129Q198 129 147 189L37 78L22 93L134 206Q100 259 100 349Q100 439 134 492L22 605L37 620L147 509Q198 569 293 569Q388 569 439 509L549 620L564 605L452 492Q486 439 486 349Q486 259 452 206L564 93L549
78L439 189Q388 129 293 129ZM293 148Q374 148 418 195T463 326V372Q463 455 419 502T293 550Q212 550 168 503T123 372V326Q123 243 167 196T293 148Z" />
<glyph unicode="&#xa5;" horiz-adv-x="580" d="M301 0H279V168H81V187H279V325H81V344H267L48 698H73L289 348H292L508 698H532L313 344H499V325H301V187H499V168H301V0Z" />
<glyph unicode="&#xa9;" horiz-adv-x="708" d="M354 -12Q283 -12 224 13T123 86T57 200T33 349Q33 431 56 497T122 611T224 684T354 710Q425 710 484 685T585 612T651 498T675 349Q675 267 652 201T586 87T484 14T354 -12ZM354 6Q421 6 476 30T570 98T631 199T653
327V371Q653 440 632 498T571 600T476 667T354 692Q286 692 231 668T137 600T77 499T55 371V327Q55 258 76 200T137 98T232 31T354 6ZM351 149Q283 149 243 199T202 346Q202 443 243 493T353 543Q402 543 433 520T476 462L460 457Q447 489 421 507T353 526Q293
526 258 484T222 356V336Q222 248 257 207T352 166Q394 166 422 185T465 236L480 229Q466 195 433 172T351 149Z" />
<glyph unicode="&#xab;" horiz-adv-x="472" d="M34 284V304L232 482L241 467L57 294L241 121L232 106L34 284ZM214 284V304L412 482L421 467L237 294L421 121L412 106L214 284Z" />
<glyph unicode="&#xac;" horiz-adv-x="600" d="M501 296H62V315H522V104H501V296Z" />
<glyph unicode="&#xae;" horiz-adv-x="466" d="M233 298Q190 298 154 313T91 355T50 420T35 504Q35 550 50 588T91 653T153 695T233 710Q276 710 312 695T375 653T416 588T431 504Q431 458 416 420T375 355T313 313T233 298ZM233 314Q272 314 304 327T361 365T398
422T412 494V514Q412 553 399 586T361 643T305 680T233 694Q194 694 162 681T105 643T68 586T54 514V494Q54 455 67 422T105 365T161 328T233 314ZM168 397V609H249Q278 609 295 595T312 547Q312 520 299 505T264 489L318 397H299L247 488H184V397H168ZM248 503Q273
503 283 512T294 545V552Q294 575 284 584T248 594H184V503H248Z" />
<glyph unicode="&#xb0;" horiz-adv-x="466" d="M233 374Q198 374 169 387T117 422T83 475T71 542Q71 578 83 608T117 661T168 697T233 710Q267 710 297 697T348 662T382 609T395 542Q395 506 383 476T349 423T297 387T233 374ZM233 393Q265 393 291 405T335 437T364
484T374 542Q374 572 364 599T336 647T291 679T233 691Q201 691 175 679T131 647T102 600T92 542Q92 511 102 484T130 437T175 405T233 393Z" />
<glyph unicode="&#xb1;" horiz-adv-x="600" d="M290 349H62V368H290V602H311V368H539V349H311V115H290V349ZM62 19H538V0H62V19Z" />
<glyph unicode="&#xb2;" horiz-adv-x="345" d="M44 329V349L183 464Q267 533 267 592V602Q267 639 244 663T172 687Q125 687 98 666T58 609L41 614Q53 651 85 677T172 704Q229 704 258 674T287 599Q287 561 265 526T194 452L64 346H300V329H44Z" />
<glyph unicode="&#xb3;" horiz-adv-x="347" d="M159 529Q215 529 237 550T260 608V614Q260 647 237 667T168 687Q129 687 107 675T67 641L53 651Q69 674 97 689T168 704Q222 704 251 679T280 609Q280 573 261 552T210 523V520Q287 508 287 431Q287 381 255 352T162
323Q117 323 88 339T42 379L56 390Q74 367 97 354T162 340Q214 340 240 362T267 427V433Q267 471 245 491T166 512H113V529H159V529Z" />
<glyph unicode="&#xb6;" horiz-adv-x="591" d="M250 330Q209 330 173 342T110 378T67 436T51 514Q51 558 67 592T110 649T173 685T250 698H493V680H424V-149H403V680H271V-149H250V330V330Z" />
<glyph unicode="&#xb7;" horiz-adv-x="298" d="M149 277Q122 277 122 302V310Q122 335 149 335Q176 335 176 310V302Q176 277 149 277Z" />
<glyph unicode="&#xb9;" horiz-adv-x="373" d="M60 346H189V683H185L60 578L49 591L176 698H208V346H326V329H60V346Z" />
<glyph unicode="&#xbb;" horiz-adv-x="472" d="M235 294L51 467L60 482L258 304V284L60 106L51 121L235 294ZM415 294L231 467L240 482L438 304V284L240 106L231 121L415 294Z" />
<glyph unicode="&#xbc;" horiz-adv-x="851" d="M60 346H189V683H185L60 578L49 591L176 698H208V346H326V329H60V346ZM675 698H697L250 0H228L675 698ZM738 89H525V108L729 369H757V106H823V89H757V0H738V89ZM735 350L545 106H738V350H735Z" />
<glyph unicode="&#xbd;" horiz-adv-x="885" d="M60 346H189V683H185L60 578L49 591L176 698H208V346H326V329H60V346ZM675 698H697L250 0H228L675 698ZM584 0V20L723 135Q807 204 807 263V273Q807 310 784 334T712 358Q665 358 638 337T598 280L581 285Q593 322
625 348T712 375Q769 375 798 345T827 270Q827 232 805 197T734 123L604 17H840V0H584Z" />
<glyph unicode="&#xbe;" horiz-adv-x="815" d="M159 529Q215 529 237 550T260 608V614Q260 647 237 667T168 687Q129 687 107 675T67 641L53 651Q69 674 97 689T168 704Q222 704 251 679T280 609Q280 573 261 552T210 523V520Q287 508 287 431Q287 381 255 352T162
323Q117 323 88 339T42 379L56 390Q74 367 97 354T162 340Q214 340 240 362T267 427V433Q267 471 245 491T166 512H113V529H159ZM639 698H661L214 0H192L639 698ZM702 89H489V108L693 369H721V106H787V89H721V0H702V89ZM699 350L509 106H702V350H699Z" />
<glyph unicode="&#xd7;" horiz-adv-x="600" d="M119 110L105 123L287 305L105 487L119 500L300 318L481 500L495 487L313 305L495 123L481 110L300 292L119 110Z" />
<glyph unicode="&#xf7;" horiz-adv-x="600" d="M300 468Q266 468 266 495V503Q266 530 300 530Q334 530 334 503V495Q334 468 300 468ZM62 315H538V296H62V315ZM300 81Q266 81 266 108V116Q266 143 300 143Q334 143 334 116V108Q334 81 300 81Z" />
<glyph unicode="&#x2013;" horiz-adv-x="588" d="M36 314H552V296H36V314Z" />
<glyph unicode="&#x2014;" horiz-adv-x="780" d="M36 314H744V296H36V314Z" />
<glyph unicode="&#x2018;" horiz-adv-x="240" d="M115 540Q101 540 95 547T89 566V578Q89 599 95 621T111 664T136 705T166 740H185Q147 702 131 664T111 598Q129 598 136 591T143 575V566Q143 555 137 548T115 540Z" />
<glyph unicode="&#x2019;" horiz-adv-x="240" d="M129 750Q143 750 149 743T155 724V712Q155 691 149 669T133 626T108 585T78 550H59Q97 588 113 626T133 692Q115 692 108 699T101 715V724Q101 735 107 742T129 750Z" />
<glyph unicode="&#x201c;" horiz-adv-x="400" d="M115 540Q101 540 95 547T89 566V578Q89 599 95 621T111 664T136 705T166 740H185Q147 702 131 664T111 598Q129 598 136 591T143 575V566Q143 555 137 548T115 540ZM275 540Q261 540 255 547T249 566V578Q249
599 255 621T271 664T296 705T326 740H345Q307 702 291 664T271 598Q289 598 296 591T303 575V566Q303 555 297 548T275 540Z" />
<glyph unicode="&#x201d;" horiz-adv-x="400" d="M129 750Q143 750 149 743T155 724V712Q155 691 149 669T133 626T108 585T78 550H59Q97 588 113 626T133 692Q115 692 108 699T101 715V724Q101 735 107 742T129 750ZM289 750Q303 750 309 743T315 724V712Q315
691 309 669T293 626T268 585T238 550H219Q257 588 273 626T293 692Q275 692 268 699T261 715V724Q261 735 267 742T289 750Z" />
<glyph unicode="&#x2022;" horiz-adv-x="336" d="M168 218Q121 218 102 239T82 293V315Q82 347 101 368T168 390Q215 390 234 369T254 315V293Q254 261 235 240T168 218Z" />
</font>
</defs>
</svg>
