<svg id="Layer_5" data-name="Layer 5" xmlns="http://www.w3.org/2000/svg" viewBox="0 0 140.68 168.55"><title>img_local_map</title><g id="Image_4" data-name="Image 4"><path d="M68.23,164.1l2.65-30.51-13.29-1.33,1.33-27.85-18.57-2.65,1.26-17.65H60.16l1.32-9.29h9.36V68.51H57.46l-1.32-5.28-55.62-4L3.13.52,119.35,5.8a32,32,0,0,1,20.83,23.43L133.57,168Z" transform="translate(0 0)" fill="#e5e1a2"/><path d="M3.61,1,119.25,6.3a31.46,31.46,0,0,1,20.42,23l-6.58,138.23-64.32-3.86,2.56-29.5.09-1-1-.09-12.33-1.24,1.28-26.92,0-.91-.9-.13-17.66-2.52,1.19-16.72H60.59l.12-.86,1.21-8.43h9.42V68H57.85l-1.14-4.55-.18-.7-.72,0L1,58.79,3.61,1m-1-1L0,59.72l55.74,4L57.07,69H70.34v5.31H61.05l-1.33,9.29H41.14l-1.33,18.58,18.58,2.65-1.32,27.87L70.34,134l-2.66,30.53,66.36,4L140.68,29.2A32.21,32.21,0,0,0,119.44,5.31L2.65,0Z" transform="translate(0 0)" fill="#515017"/></g></svg>